<svg xmlns="http://www.w3.org/2000/svg" width="30" height="30"><path d="M 6.85 14.63C 7.17 15.5 7.4 16.35 7.8 16.96 7.88 17.08 7.96 17.2 8.04 17.3 8.14 17.45 8.23 17.59 8.31 17.68 8.43 17.83 8.53 17.91 8.53 17.91 8.59 17.97 8.62 18.05 8.58 18.12 8.55 18.19 8.47 18.23 8.39 18.2 8.37 18.2 8.26 18.17 8.1 18.08 8.06 18.06 8.02 18.04 7.98 18.01 7.98 18.01 7.91 17.96 7.91 17.96 7.72 17.83 7.45 17.65 7.19 17.38 6.37 16.58 6.15 15.77 5.85 14.93 5.77 14.64 5.72 14.38 5.7 14.08 5.69 13.82 5.7 13.56 5.72 13.28 5.78 12.74 5.9 12.26 6.01 11.9 6.13 11.48 6.31 11.15 6.43 10.94 6.58 10.7 6.68 10.54 6.68 10.54 6.73 10.46 6.83 10.44 6.92 10.49 7.01 10.54 7.05 10.62 7.03 10.71 7.02 10.71 6.95 10.92 6.9 11.14 6.83 11.34 6.79 11.64 6.74 12.03 6.69 12.38 6.67 12.8 6.68 13.3 6.68 13.52 6.69 13.75 6.72 13.99 6.74 14.2 6.79 14.44 6.85 14.63ZM 22.52 27.97C 22.52 27.97 22.12 20.23 22.12 20.23 22.12 20.23 22.14 20.23 22.16 20.22 23.37 19.94 24.4 19.17 25.05 18.2 25.86 16.98 24.43 6.23 24.43 6.23 24.43 6.23 23.71 6.23 23.71 6.23 23.71 6.23 23.71 16.32 23.71 16.32 23.71 16.32 22.79 16.32 22.79 16.32 22.79 16.32 22.79 6.23 22.79 6.23 22.79 6.23 21.73 6.23 21.73 6.23 21.73 6.23 21.73 16.32 21.73 16.32 21.73 16.32 20.81 16.32 20.81 16.32 20.81 16.32 20.81 6.23 20.81 6.23 20.81 6.23 19.8 6.23 19.8 6.23 19.8 6.23 19.8 16.32 19.8 16.32 19.8 16.32 18.87 16.32 18.87 16.32 18.87 16.32 18.87 6.23 18.87 6.23 18.87 6.23 17.94 6.23 17.94 6.23 17.94 6.23 16.5 16.98 17.31 18.2 17.97 19.17 19.01 19.95 20.24 20.22 20.24 20.22 19.77 29.21 19.77 29.21 18.27 29.72 16.67 30 15 30 13.76 30 12.57 29.83 11.42 29.55 11.42 29.55 10.89 19.46 10.89 19.46 10.89 19.46 11.96 19.07 11.98 19.07 13.85 18.24 15.21 15.81 15.21 12.66 15.21 9.22 12.54 6.26 9.96 6.23 9.96 6.23 9.96 6.23 9.96 6.23 9.95 6.23 9.95 6.23 9.95 6.23 7.37 6.26 4.7 9.22 4.7 12.66 4.7 15.81 6.06 18.24 7.94 19.07 8.13 19.16 9.01 19.45 9.01 19.45 9.01 19.45 8.54 28.52 8.54 28.52 3.5 26.11-0 20.97-0 15-0 6.72 6.71 0 15 0 23.28 0 30 6.72 30 15 30 20.54 26.99 25.37 22.52 27.97Z" fill="#FFDB5B"/></svg>