<svg xmlns="http://www.w3.org/2000/svg" width="29" height="29"><circle cx="14.5" cy="14.5" r="14.5" fill="#FFDB5B"/><path d="M 22.46 6.54C 21.74 5.81 20.56 5.82 19.84 6.56 19.84 6.56 15.95 10.62 15.95 10.62 15.95 10.62 6.45 7.48 6.45 7.48 6.45 7.48 4.46 9.47 4.46 9.47 4.46 9.47 12.38 14.34 12.38 14.34 12.38 14.34 8.37 18.52 8.37 18.52 8.37 18.52 5.8 18.1 5.8 18.1 5.8 18.1 4 19.9 4 19.9 4 19.9 7.78 21.22 7.78 21.22 7.78 21.22 9.1 25 9.1 25 9.1 25 10.9 23.2 10.9 23.2 10.9 23.2 10.48 20.63 10.48 20.63 10.48 20.63 14.65 16.62 14.65 16.62 14.65 16.62 19.53 24.54 19.53 24.54 19.53 24.54 21.52 22.55 21.52 22.55 21.52 22.55 18.38 13.05 18.38 13.05 18.38 13.05 22.44 9.15 22.44 9.15 23.18 8.44 23.19 7.26 22.46 6.54Z" fill="#FFF"/></svg>