<?xml version="1.0" encoding="utf-8"?>
<!-- Generator: Adobe Illustrator 21.0.0, SVG Export Plug-In . SVG Version: 6.00 Build 0)  -->
<svg version="1.1" id="Слой_1" xmlns="http://www.w3.org/2000/svg" xmlns:xlink="http://www.w3.org/1999/xlink" x="0px" y="0px"
	 viewBox="0 0 240 83" style="enable-background:new 0 0 240 83;" xml:space="preserve">
<style type="text/css">
	.st0{fill:#3158A0;}
	.st1{fill-rule:evenodd;clip-rule:evenodd;fill:#A5D7FD;}
	.st2{fill-rule:evenodd;clip-rule:evenodd;fill:#F9EA37;}
	.st3{fill:#EEC02D;}
	.st4{fill-rule:evenodd;clip-rule:evenodd;fill:#5FA7FB;}
</style>
<g>
	<g>
		<path class="st0" d="M123.7,63.2v-1h0.6v-1.4h1.2v1.4h1.3v1h-1.3v2.5c0,0.4,0.2,0.6,0.6,0.6c0.2,0,0.5-0.1,0.7-0.2V67
			c-0.3,0.2-0.6,0.3-1,0.3c-1,0-1.4-0.5-1.4-1.5v-2.6H123.7z"/>
		<path class="st0" d="M130,64.7c0-0.5,0.1-0.9,0.3-1.3c0.2-0.4,0.6-0.7,1-1c0.4-0.2,0.9-0.4,1.4-0.4c0.5,0,1,0.1,1.4,0.3
			c0.4,0.2,0.7,0.5,1,0.9c0.2,0.4,0.3,0.8,0.3,1.3c0,0.4-0.1,0.7-0.2,1c-0.1,0.3-0.3,0.6-0.6,0.8c-0.2,0.2-0.5,0.4-0.9,0.6
			c-0.3,0.1-0.7,0.2-1.1,0.2c-0.5,0-1-0.1-1.4-0.4c-0.4-0.2-0.7-0.6-1-1C130.1,65.6,130,65.1,130,64.7z M131.1,64.7
			c0,0.4,0.1,0.8,0.4,1.1c0.3,0.3,0.7,0.5,1.1,0.5c0.5,0,0.8-0.2,1.1-0.5c0.3-0.3,0.4-0.7,0.4-1.2c0-0.4-0.1-0.8-0.4-1.1
			c-0.3-0.3-0.7-0.5-1.1-0.5c-0.5,0-0.8,0.2-1.1,0.5C131.3,63.8,131.1,64.2,131.1,64.7z"/>
		<path class="st0" d="M138.8,65.3v-3.2h1.2V65c0,0.4,0.1,0.7,0.3,0.9c0.2,0.2,0.5,0.3,0.8,0.3c0.3,0,0.6-0.1,0.8-0.3
			s0.3-0.5,0.3-0.9v-2.8h1.2v5h-1.2v-0.8c-0.4,0.6-0.9,0.9-1.6,0.9c-0.6,0-1-0.2-1.3-0.5C139,66.4,138.8,65.9,138.8,65.3z"/>
		<path class="st0" d="M147.1,67.2v-5h1.2v1.1c0.2-0.4,0.4-0.7,0.7-0.9c0.3-0.2,0.6-0.3,1-0.3c0,0,0.1,0,0.1,0v1.2H150
			c-0.5,0-0.9,0.2-1.2,0.5c-0.3,0.3-0.5,0.8-0.5,1.5v1.9H147.1z"/>
		<path class="st0" d="M153,64.7c0-0.5,0.1-0.9,0.3-1.3c0.2-0.4,0.6-0.7,1-1c0.4-0.2,0.9-0.4,1.4-0.4c0.5,0,1,0.1,1.4,0.3
			c0.4,0.2,0.7,0.5,1,0.9c0.2,0.4,0.3,0.8,0.3,1.3c0,0.4-0.1,0.7-0.2,1c-0.1,0.3-0.3,0.6-0.6,0.8c-0.2,0.2-0.5,0.4-0.9,0.6
			c-0.3,0.1-0.7,0.2-1.1,0.2c-0.5,0-1-0.1-1.4-0.4c-0.4-0.2-0.7-0.6-1-1S153,65.1,153,64.7z M154.1,64.7c0,0.4,0.1,0.8,0.4,1.1
			c0.3,0.3,0.7,0.5,1.1,0.5c0.5,0,0.8-0.2,1.1-0.5c0.3-0.3,0.4-0.7,0.4-1.2c0-0.4-0.1-0.8-0.4-1.1c-0.3-0.3-0.7-0.5-1.1-0.5
			c-0.5,0-0.8,0.2-1.1,0.5C154.3,63.8,154.1,64.2,154.1,64.7z"/>
		<path class="st0" d="M161.9,68.7v-6.5h1.2V63c0.4-0.6,1-0.9,1.7-0.9c0.3,0,0.6,0.1,0.9,0.2c0.3,0.1,0.5,0.3,0.7,0.5
			c0.2,0.2,0.4,0.5,0.5,0.8c0.1,0.3,0.2,0.7,0.2,1.1c0,0.4-0.1,0.8-0.2,1.1c-0.1,0.3-0.3,0.6-0.5,0.8c-0.2,0.2-0.5,0.4-0.7,0.5
			c-0.3,0.1-0.6,0.2-0.9,0.2c-0.7,0-1.3-0.3-1.7-0.9v2.3H161.9z M163,64.7c0,0.5,0.1,0.9,0.4,1.2c0.3,0.3,0.6,0.5,1,0.5
			c0.4,0,0.7-0.1,1-0.4s0.4-0.7,0.4-1.2c0-0.5-0.1-0.9-0.4-1.2c-0.3-0.3-0.6-0.4-1-0.4c-0.4,0-0.7,0.2-1,0.5
			C163.1,63.8,163,64.2,163,64.7z"/>
		<path class="st0" d="M170.3,64.7c0-0.5,0.1-0.9,0.3-1.3c0.2-0.4,0.5-0.7,0.9-0.9c0.4-0.2,0.8-0.4,1.3-0.4c0.3,0,0.6,0,0.9,0.1
			c0.3,0.1,0.5,0.2,0.7,0.4c0.2,0.2,0.3,0.4,0.5,0.6c0.1,0.2,0.2,0.5,0.3,0.7c0.1,0.3,0.1,0.5,0.1,0.8c0,0.1,0,0.2,0,0.3h-3.7
			c0.1,0.4,0.2,0.7,0.5,0.9c0.3,0.2,0.6,0.3,1,0.3c0.3,0,0.5,0,0.7-0.1c0.2-0.1,0.4-0.2,0.6-0.5l0.7,0.6c-0.5,0.6-1.2,0.9-2.1,0.9
			c-0.5,0-0.9-0.1-1.3-0.3c-0.4-0.2-0.7-0.5-0.9-0.9C170.4,65.6,170.3,65.2,170.3,64.7z M171.5,64.3h2.6c0-0.4-0.2-0.7-0.4-1
			c-0.2-0.2-0.5-0.4-0.9-0.4c-0.3,0-0.6,0.1-0.9,0.4C171.7,63.6,171.5,63.9,171.5,64.3z"/>
		<path class="st0" d="M178.7,67.2v-5h1.2v1.1c0.2-0.4,0.4-0.7,0.7-0.9c0.3-0.2,0.6-0.3,1-0.3c0,0,0.1,0,0.1,0v1.2h-0.1
			c-0.5,0-0.9,0.2-1.2,0.5c-0.3,0.3-0.5,0.8-0.5,1.5v1.9H178.7z"/>
		<path class="st0" d="M184.4,65.7c0-0.5,0.2-0.9,0.6-1.2c0.4-0.3,0.9-0.4,1.5-0.4c0.5,0,1,0.1,1.4,0.2v-0.1c0-0.4-0.1-0.6-0.3-0.8
			c-0.2-0.2-0.5-0.3-0.9-0.3c-0.5,0-0.9,0.1-1.4,0.3l-0.3-0.9c0.3-0.1,0.6-0.2,0.9-0.3c0.3-0.1,0.6-0.1,1-0.1c0.7,0,1.3,0.2,1.7,0.5
			c0.4,0.4,0.6,0.9,0.6,1.6v3h-1.2v-0.6c-0.4,0.5-0.9,0.7-1.6,0.7c-0.3,0-0.6-0.1-0.9-0.2s-0.5-0.3-0.7-0.5
			C184.5,66.3,184.4,66,184.4,65.7z M185.6,65.7c0,0.2,0.1,0.4,0.3,0.5c0.2,0.1,0.4,0.2,0.7,0.2c0.4,0,0.7-0.1,0.9-0.3
			c0.2-0.2,0.4-0.4,0.4-0.8v-0.3c-0.3-0.1-0.7-0.2-1.1-0.2c-0.4,0-0.6,0.1-0.8,0.2C185.7,65.2,185.6,65.4,185.6,65.7z"/>
		<path class="st0" d="M192.3,63.2v-1h0.6v-1.4h1.2v1.4h1.3v1h-1.3v2.5c0,0.4,0.2,0.6,0.6,0.6c0.2,0,0.5-0.1,0.7-0.2V67
			c-0.3,0.2-0.6,0.3-1,0.3c-1,0-1.4-0.5-1.4-1.5v-2.6H192.3z"/>
		<path class="st0" d="M198.5,64.7c0-0.5,0.1-0.9,0.3-1.3c0.2-0.4,0.6-0.7,1-1c0.4-0.2,0.9-0.4,1.4-0.4c0.5,0,1,0.1,1.4,0.3
			c0.4,0.2,0.7,0.5,1,0.9c0.2,0.4,0.3,0.8,0.3,1.3c0,0.4-0.1,0.7-0.2,1c-0.1,0.3-0.3,0.6-0.6,0.8c-0.2,0.2-0.5,0.4-0.9,0.6
			c-0.3,0.1-0.7,0.2-1.1,0.2c-0.5,0-1-0.1-1.4-0.4c-0.4-0.2-0.7-0.6-1-1S198.5,65.1,198.5,64.7z M199.7,64.7c0,0.4,0.1,0.8,0.4,1.1
			c0.3,0.3,0.7,0.5,1.1,0.5c0.5,0,0.8-0.2,1.1-0.5c0.3-0.3,0.4-0.7,0.4-1.2c0-0.4-0.1-0.8-0.4-1.1c-0.3-0.3-0.7-0.5-1.1-0.5
			c-0.5,0-0.8,0.2-1.1,0.5C199.8,63.8,199.7,64.2,199.7,64.7z"/>
		<path class="st0" d="M207.4,67.2v-5h1.2v1.1c0.2-0.4,0.4-0.7,0.7-0.9c0.3-0.2,0.6-0.3,1-0.3c0,0,0.1,0,0.1,0v1.2h-0.1
			c-0.5,0-0.9,0.2-1.2,0.5c-0.3,0.3-0.5,0.8-0.5,1.5v1.9H207.4z"/>
	</g>
	<g>
		<path class="st0" d="M95.1,54.8l4.5-25.6h6.9l-0.5,2.6c1-1,2-1.7,3-2.3c1-0.5,2.2-0.8,3.6-0.8c1.2,0,2.2,0.2,3.2,0.7
			c1,0.5,1.8,1.2,2.4,2c0.7,0.9,1.1,2,1.3,3.3c0.2,1.3,0.2,2.7-0.1,4.3s-0.8,3-1.5,4.3c-0.7,1.3-1.5,2.4-2.5,3.3c-1,0.9-2,1.6-3.1,2
			c-1.1,0.5-2.3,0.7-3.4,0.7c-1.4,0-2.5-0.3-3.3-0.8c-0.9-0.5-1.6-1.2-2.2-2.1l-1.5,8.3H95.1z M104.6,39.1c-0.2,1.3,0,2.4,0.6,3.2
			c0.6,0.8,1.5,1.3,2.6,1.3c1.2,0,2.2-0.4,3.1-1.3c0.9-0.8,1.5-1.9,1.7-3.3c0.2-1.3,0-2.3-0.6-3.2c-0.6-0.8-1.5-1.3-2.7-1.3
			c-1.1,0-2.2,0.4-3.1,1.3C105.5,36.7,104.9,37.8,104.6,39.1z"/>
		<path class="st0" d="M120.8,49l3.5-19.8h6.9l-0.7,4c1.7-2.9,3.9-4.3,6.7-4.3c0.1,0,0.2,0,0.4,0l-1.3,7.3h-0.6
			c-3.8,0-6.1,2.2-6.8,6.7l-1.1,6.1H120.8z"/>
		<path class="st0" d="M137,39.1c0.2-1.4,0.8-2.7,1.5-4c0.8-1.3,1.7-2.4,2.9-3.3c1.1-0.9,2.4-1.7,3.9-2.2c1.5-0.6,3-0.8,4.5-0.8
			c2.1,0,3.8,0.5,5.4,1.4c1.5,0.9,2.6,2.2,3.2,3.8c0.7,1.6,0.8,3.3,0.5,5.2c-0.2,1.4-0.8,2.7-1.5,4c-0.8,1.3-1.7,2.4-2.8,3.3
			c-1.1,0.9-2.4,1.7-3.9,2.2s-3,0.8-4.5,0.8c-1.5,0-3-0.3-4.2-0.8c-1.3-0.5-2.3-1.3-3.1-2.2c-0.8-0.9-1.3-2-1.7-3.3
			C136.8,41.9,136.8,40.5,137,39.1z M143.8,39.1c-0.2,1.2,0,2.3,0.6,3.1c0.6,0.9,1.6,1.3,2.8,1.3c1.2,0,2.3-0.4,3.2-1.3
			c0.9-0.9,1.5-1.9,1.7-3.2c0.2-1.2,0-2.3-0.6-3.1c-0.6-0.9-1.6-1.3-2.8-1.3c-1.2,0-2.3,0.4-3.2,1.3C144.6,36.8,144,37.9,143.8,39.1
			z"/>
		<path class="st0" d="M161.4,34.8l1-5.6h2.3l0.9-5h6.9l-0.9,5h4.6l-1,5.6h-4.6l-1.2,6.7c-0.1,0.7-0.1,1.2,0.2,1.5
			c0.3,0.3,0.7,0.5,1.4,0.5c0.8,0,1.8-0.2,2.7-0.7l-1,5.4c-1.5,0.8-3.2,1.1-5,1.1c-2.2,0-3.7-0.5-4.7-1.6c-1-1-1.2-2.7-0.8-5l1.4-8
			H161.4z"/>
		<path class="st0" d="M176.1,39.1c0.2-1.4,0.8-2.7,1.5-4c0.8-1.3,1.7-2.4,2.9-3.3c1.1-0.9,2.4-1.7,3.9-2.2c1.5-0.6,3-0.8,4.5-0.8
			c2.1,0,3.8,0.5,5.4,1.4c1.5,0.9,2.6,2.2,3.2,3.8c0.7,1.6,0.8,3.3,0.5,5.2c-0.2,1.4-0.8,2.7-1.5,4c-0.8,1.3-1.7,2.4-2.8,3.3
			c-1.1,0.9-2.4,1.7-3.9,2.2s-3,0.8-4.5,0.8c-1.5,0-3-0.3-4.2-0.8c-1.3-0.5-2.3-1.3-3.1-2.2c-0.8-0.9-1.3-2-1.7-3.3
			C175.9,41.9,175.9,40.5,176.1,39.1z M182.9,39.1c-0.2,1.2,0,2.3,0.6,3.1c0.6,0.9,1.6,1.3,2.8,1.3c1.2,0,2.3-0.4,3.2-1.3
			c0.9-0.9,1.5-1.9,1.7-3.2c0.2-1.2,0-2.3-0.6-3.1c-0.6-0.9-1.6-1.3-2.8-1.3c-1.2,0-2.3,0.4-3.2,1.3
			C183.7,36.8,183.1,37.9,182.9,39.1z"/>
		<path class="st0" d="M200.2,42.1l2.3-12.9h6.9l-1.9,10.7c-0.2,1.1-0.1,1.9,0.3,2.4c0.4,0.6,1,0.9,1.9,0.9c0.8,0,1.6-0.3,2.2-0.9
			c0.6-0.6,1.1-1.4,1.2-2.4l1.9-10.7h6.9L218.6,49h-6.9l0.5-2.7c-2,2.1-4.2,3.2-6.5,3.2c-2.1,0-3.6-0.6-4.6-1.9
			C200.1,46.2,199.8,44.4,200.2,42.1z"/>
		<path class="st0" d="M222.3,49l3.5-19.8h6.9l-0.7,4c1.7-2.9,3.9-4.3,6.7-4.3c0.1,0,0.2,0,0.4,0l-1.3,7.3h-0.6
			c-3.8,0-6.1,2.2-6.8,6.7l-1.1,6.1H222.3z"/>
	</g>
	<g>
		<g>
			<path class="st1" d="M16.9,25c-2,4.8-3.1,9.7-3.2,14.6l73.9-17.7C83.6,14.3,77,8,68.5,4.3C48.6-4.2,25.5,5,16.9,25z"/>
			<path class="st0" d="M12.9,40.6l0-1c0.1-5.1,1.2-10.1,3.2-14.9l0,0c8.7-20.3,32.3-29.8,52.6-21c8.4,3.6,15.2,9.8,19.5,17.9
				l0.5,0.9L12.9,40.6z M53,1.9c-4.8,0-9.7,0.9-14.3,2.8c-9.6,3.8-17.1,11.1-21.1,20.6h0c-1.8,4.2-2.8,8.7-3.1,13.3l71.9-17.2
				C82.3,14,76,8.4,68.2,5.1C63.3,3,58.2,1.9,53,1.9z"/>
		</g>
		<path class="st2" d="M1.6,58.1c3.8,8.9,11,16.4,20.6,20.6c20,8.6,43.1-0.7,51.6-20.6c1.1-2.5,1.8-5,2.4-7.5L1.6,58.1z"/>
		<path class="st0" d="M37.7,82.7c-5.4,0-10.7-1.1-15.8-3.3c-9.5-4.1-16.9-11.5-21-21l-0.4-1l76.7-7.8l-0.2,1
			c-0.5,2.6-1.4,5.2-2.4,7.7c-4.2,9.8-12,17.4-22,21.4C47.7,81.7,42.7,82.7,37.7,82.7z M2.7,58.8c4,8.6,11,15.4,19.8,19.2
			C32,82,42.4,82.2,52,78.3c9.6-3.8,17.1-11.1,21.1-20.6c0.9-2,1.6-4.2,2.1-6.3L2.7,58.8z"/>
		<path class="st3" d="M69.7,25.4c-1.2-4.8-5.6-8.4-10.8-8.4c-6.2,0-11.2,5-11.2,11.2c0,0.9,0.1,1.7,0.3,2.5L69.7,25.4z"/>
		<g>
			<path class="st4" d="M80.1,23.6L6.2,41.4c-0.1,5.5,0.9,11,3,16l74.8-7.6C85.9,40.7,84.4,31.5,80.1,23.6z"/>
			<path class="st0" d="M8.8,58.2l-0.2-0.5C6.4,52.5,5.3,47,5.5,41.4l0-0.6l75.1-18l0.3,0.5c4.4,8.2,5.8,17.6,4,26.7l-0.1,0.6
				L8.8,58.2z M7,42c0,5,0.9,9.9,2.8,14.6l73.7-7.5c1.5-8.3,0.2-17-3.7-24.6L7,42z"/>
		</g>
		<path class="st0" d="M48.7,30.4c-0.2-0.7-0.3-1.5-0.3-2.3c0-5.7,4.7-10.4,10.4-10.4c4.9,0,8.9,3.3,10.1,7.8l1.5-0.4
			c-1.3-5.2-6-9-11.6-9c-6.6,0-12,5.4-12,12c0,0.9,0.1,1.8,0.3,2.7L48.7,30.4z"/>
	</g>
</g>
</svg>
