<svg xmlns="http://www.w3.org/2000/svg" width="17" height="17"><path d="M 16.28 7.7C 16.6 7.36 16.71 6.86 16.58 6.39 16.44 5.93 16.08 5.6 15.63 5.53 15.63 5.53 11.69 4.9 11.69 4.9 11.53 4.88 11.38 4.76 11.31 4.6 11.31 4.6 9.55 0.7 9.55 0.7 9.35 0.27 8.95-0 8.5-0 8.05-0 7.65 0.27 7.45 0.7 7.45 0.7 5.69 4.6 5.69 4.6 5.62 4.76 5.47 4.88 5.3 4.9 5.3 4.9 1.36 5.53 1.36 5.53 0.92 5.6 0.56 5.93 0.42 6.39 0.28 6.86 0.4 7.36 0.72 7.7 0.72 7.7 3.57 10.73 3.57 10.73 3.69 10.86 3.74 11.04 3.72 11.23 3.72 11.23 3.04 15.5 3.04 15.5 2.98 15.88 3.07 16.25 3.3 16.53 3.65 16.99 4.25 17.12 4.74 16.84 4.74 16.84 8.26 14.82 8.26 14.82 8.41 14.74 8.59 14.74 8.74 14.82 8.74 14.82 12.26 16.84 12.26 16.84 12.43 16.94 12.62 16.99 12.8 16.99 13.15 16.99 13.48 16.83 13.7 16.53 13.92 16.25 14.01 15.88 13.95 15.5 13.95 15.5 13.28 11.23 13.28 11.23 13.25 11.04 13.31 10.86 13.43 10.73 13.43 10.73 16.28 7.7 16.28 7.7Z" fill="#FFDB5B"/></svg>