<svg xmlns="http://www.w3.org/2000/svg" width="17" height="17"><path d="M 16.46 7.7C 16.78 7.36 16.9 6.86 16.76 6.39 16.62 5.93 16.26 5.6 15.82 5.53 15.82 5.53 11.88 4.9 11.88 4.9 11.71 4.88 11.56 4.76 11.49 4.6 11.49 4.6 9.73 0.7 9.73 0.7 9.53 0.27 9.13-0 8.68-0 8.23-0 7.83 0.27 7.64 0.7 7.64 0.7 5.87 4.6 5.87 4.6 5.8 4.76 5.65 4.88 5.49 4.9 5.49 4.9 1.55 5.53 1.55 5.53 1.1 5.6 0.74 5.93 0.6 6.39 0.47 6.86 0.58 7.36 0.9 7.7 0.9 7.7 3.75 10.73 3.75 10.73 3.87 10.86 3.93 11.04 3.9 11.23 3.9 11.23 3.23 15.5 3.23 15.5 3.17 15.88 3.26 16.25 3.48 16.53 3.83 16.99 4.43 17.12 4.92 16.84 4.92 16.84 8.44 14.82 8.44 14.82 8.59 14.74 8.77 14.74 8.92 14.82 8.92 14.82 12.44 16.84 12.44 16.84 12.62 16.94 12.8 16.99 12.99 16.99 13.33 16.99 13.66 16.83 13.88 16.53 14.11 16.25 14.2 15.88 14.14 15.5 14.14 15.5 13.46 11.23 13.46 11.23 13.43 11.04 13.49 10.86 13.61 10.73 13.61 10.73 16.46 7.7 16.46 7.7Z" fill="#EBEBEB"/></svg>